<?xml version="1.0" encoding="utf-8" standalone="no"?>
<!DOCTYPE svg PUBLIC "-//W3C//DTD SVG 1.1//EN"
  "http://www.w3.org/Graphics/SVG/1.1/DTD/svg11.dtd">
<!-- Created with matplotlib (https://matplotlib.org/) -->
<svg height="288pt" version="1.1" viewBox="0 0 432 288" width="432pt" xmlns="http://www.w3.org/2000/svg" xmlns:xlink="http://www.w3.org/1999/xlink">
 <defs>
  <style type="text/css">
*{stroke-linecap:butt;stroke-linejoin:round;}
  </style>
 </defs>
 <g id="figure_1">
  <g id="patch_1">
   <path d="M 0 288 
L 432 288 
L 432 0 
L 0 0 
z
" style="fill:#ffffff;"/>
  </g>
  <g id="axes_1">
   <g id="patch_2">
    <path d="M 54 252 
L 388.8 252 
L 388.8 34.56 
L 54 34.56 
z
" style="fill:#ffffff;"/>
   </g>
   <g id="matplotlib.axis_1">
    <g id="xtick_1">
     <g id="line2d_1">
      <defs>
       <path d="M 0 0 
L 0 3.5 
" id="mbb32f51153" style="stroke:#000000;stroke-width:0.8;"/>
      </defs>
      <g>
       <use style="stroke:#000000;stroke-width:0.8;" x="69.218182" xlink:href="#mbb32f51153" y="252"/>
      </g>
     </g>
     <g id="text_1">
      <!-- 0.00 -->
      <defs>
       <path d="M 31.78125 66.40625 
Q 24.171875 66.40625 20.328125 58.90625 
Q 16.5 51.421875 16.5 36.375 
Q 16.5 21.390625 20.328125 13.890625 
Q 24.171875 6.390625 31.78125 6.390625 
Q 39.453125 6.390625 43.28125 13.890625 
Q 47.125 21.390625 47.125 36.375 
Q 47.125 51.421875 43.28125 58.90625 
Q 39.453125 66.40625 31.78125 66.40625 
z
M 31.78125 74.21875 
Q 44.046875 74.21875 50.515625 64.515625 
Q 56.984375 54.828125 56.984375 36.375 
Q 56.984375 17.96875 50.515625 8.265625 
Q 44.046875 -1.421875 31.78125 -1.421875 
Q 19.53125 -1.421875 13.0625 8.265625 
Q 6.59375 17.96875 6.59375 36.375 
Q 6.59375 54.828125 13.0625 64.515625 
Q 19.53125 74.21875 31.78125 74.21875 
z
" id="DejaVuSans-48"/>
       <path d="M 10.6875 12.40625 
L 21 12.40625 
L 21 0 
L 10.6875 0 
z
" id="DejaVuSans-46"/>
      </defs>
      <g transform="translate(58.085369 266.598437)scale(0.1 -0.1)">
       <use xlink:href="#DejaVuSans-48"/>
       <use x="63.623047" xlink:href="#DejaVuSans-46"/>
       <use x="95.410156" xlink:href="#DejaVuSans-48"/>
       <use x="159.033203" xlink:href="#DejaVuSans-48"/>
      </g>
     </g>
    </g>
    <g id="xtick_2">
     <g id="line2d_2">
      <g>
       <use style="stroke:#000000;stroke-width:0.8;" x="107.263636" xlink:href="#mbb32f51153" y="252"/>
      </g>
     </g>
     <g id="text_2">
      <!-- 0.25 -->
      <defs>
       <path d="M 19.1875 8.296875 
L 53.609375 8.296875 
L 53.609375 0 
L 7.328125 0 
L 7.328125 8.296875 
Q 12.9375 14.109375 22.625 23.890625 
Q 32.328125 33.6875 34.8125 36.53125 
Q 39.546875 41.84375 41.421875 45.53125 
Q 43.3125 49.21875 43.3125 52.78125 
Q 43.3125 58.59375 39.234375 62.25 
Q 35.15625 65.921875 28.609375 65.921875 
Q 23.96875 65.921875 18.8125 64.3125 
Q 13.671875 62.703125 7.8125 59.421875 
L 7.8125 69.390625 
Q 13.765625 71.78125 18.9375 73 
Q 24.125 74.21875 28.421875 74.21875 
Q 39.75 74.21875 46.484375 68.546875 
Q 53.21875 62.890625 53.21875 53.421875 
Q 53.21875 48.921875 51.53125 44.890625 
Q 49.859375 40.875 45.40625 35.40625 
Q 44.1875 33.984375 37.640625 27.21875 
Q 31.109375 20.453125 19.1875 8.296875 
z
" id="DejaVuSans-50"/>
       <path d="M 10.796875 72.90625 
L 49.515625 72.90625 
L 49.515625 64.59375 
L 19.828125 64.59375 
L 19.828125 46.734375 
Q 21.96875 47.46875 24.109375 47.828125 
Q 26.265625 48.1875 28.421875 48.1875 
Q 40.625 48.1875 47.75 41.5 
Q 54.890625 34.8125 54.890625 23.390625 
Q 54.890625 11.625 47.5625 5.09375 
Q 40.234375 -1.421875 26.90625 -1.421875 
Q 22.3125 -1.421875 17.546875 -0.640625 
Q 12.796875 0.140625 7.71875 1.703125 
L 7.71875 11.625 
Q 12.109375 9.234375 16.796875 8.0625 
Q 21.484375 6.890625 26.703125 6.890625 
Q 35.15625 6.890625 40.078125 11.328125 
Q 45.015625 15.765625 45.015625 23.390625 
Q 45.015625 31 40.078125 35.4375 
Q 35.15625 39.890625 26.703125 39.890625 
Q 22.75 39.890625 18.8125 39.015625 
Q 14.890625 38.140625 10.796875 36.28125 
z
" id="DejaVuSans-53"/>
      </defs>
      <g transform="translate(96.130824 266.598437)scale(0.1 -0.1)">
       <use xlink:href="#DejaVuSans-48"/>
       <use x="63.623047" xlink:href="#DejaVuSans-46"/>
       <use x="95.410156" xlink:href="#DejaVuSans-50"/>
       <use x="159.033203" xlink:href="#DejaVuSans-53"/>
      </g>
     </g>
    </g>
    <g id="xtick_3">
     <g id="line2d_3">
      <g>
       <use style="stroke:#000000;stroke-width:0.8;" x="145.309091" xlink:href="#mbb32f51153" y="252"/>
      </g>
     </g>
     <g id="text_3">
      <!-- 0.50 -->
      <g transform="translate(134.176278 266.598437)scale(0.1 -0.1)">
       <use xlink:href="#DejaVuSans-48"/>
       <use x="63.623047" xlink:href="#DejaVuSans-46"/>
       <use x="95.410156" xlink:href="#DejaVuSans-53"/>
       <use x="159.033203" xlink:href="#DejaVuSans-48"/>
      </g>
     </g>
    </g>
    <g id="xtick_4">
     <g id="line2d_4">
      <g>
       <use style="stroke:#000000;stroke-width:0.8;" x="183.354545" xlink:href="#mbb32f51153" y="252"/>
      </g>
     </g>
     <g id="text_4">
      <!-- 0.75 -->
      <defs>
       <path d="M 8.203125 72.90625 
L 55.078125 72.90625 
L 55.078125 68.703125 
L 28.609375 0 
L 18.3125 0 
L 43.21875 64.59375 
L 8.203125 64.59375 
z
" id="DejaVuSans-55"/>
      </defs>
      <g transform="translate(172.221733 266.598437)scale(0.1 -0.1)">
       <use xlink:href="#DejaVuSans-48"/>
       <use x="63.623047" xlink:href="#DejaVuSans-46"/>
       <use x="95.410156" xlink:href="#DejaVuSans-55"/>
       <use x="159.033203" xlink:href="#DejaVuSans-53"/>
      </g>
     </g>
    </g>
    <g id="xtick_5">
     <g id="line2d_5">
      <g>
       <use style="stroke:#000000;stroke-width:0.8;" x="221.4" xlink:href="#mbb32f51153" y="252"/>
      </g>
     </g>
     <g id="text_5">
      <!-- 1.00 -->
      <defs>
       <path d="M 12.40625 8.296875 
L 28.515625 8.296875 
L 28.515625 63.921875 
L 10.984375 60.40625 
L 10.984375 69.390625 
L 28.421875 72.90625 
L 38.28125 72.90625 
L 38.28125 8.296875 
L 54.390625 8.296875 
L 54.390625 0 
L 12.40625 0 
z
" id="DejaVuSans-49"/>
      </defs>
      <g transform="translate(210.267188 266.598437)scale(0.1 -0.1)">
       <use xlink:href="#DejaVuSans-49"/>
       <use x="63.623047" xlink:href="#DejaVuSans-46"/>
       <use x="95.410156" xlink:href="#DejaVuSans-48"/>
       <use x="159.033203" xlink:href="#DejaVuSans-48"/>
      </g>
     </g>
    </g>
    <g id="xtick_6">
     <g id="line2d_6">
      <g>
       <use style="stroke:#000000;stroke-width:0.8;" x="259.445455" xlink:href="#mbb32f51153" y="252"/>
      </g>
     </g>
     <g id="text_6">
      <!-- 1.25 -->
      <g transform="translate(248.312642 266.598437)scale(0.1 -0.1)">
       <use xlink:href="#DejaVuSans-49"/>
       <use x="63.623047" xlink:href="#DejaVuSans-46"/>
       <use x="95.410156" xlink:href="#DejaVuSans-50"/>
       <use x="159.033203" xlink:href="#DejaVuSans-53"/>
      </g>
     </g>
    </g>
    <g id="xtick_7">
     <g id="line2d_7">
      <g>
       <use style="stroke:#000000;stroke-width:0.8;" x="297.490909" xlink:href="#mbb32f51153" y="252"/>
      </g>
     </g>
     <g id="text_7">
      <!-- 1.50 -->
      <g transform="translate(286.358097 266.598437)scale(0.1 -0.1)">
       <use xlink:href="#DejaVuSans-49"/>
       <use x="63.623047" xlink:href="#DejaVuSans-46"/>
       <use x="95.410156" xlink:href="#DejaVuSans-53"/>
       <use x="159.033203" xlink:href="#DejaVuSans-48"/>
      </g>
     </g>
    </g>
    <g id="xtick_8">
     <g id="line2d_8">
      <g>
       <use style="stroke:#000000;stroke-width:0.8;" x="335.536364" xlink:href="#mbb32f51153" y="252"/>
      </g>
     </g>
     <g id="text_8">
      <!-- 1.75 -->
      <g transform="translate(324.403551 266.598437)scale(0.1 -0.1)">
       <use xlink:href="#DejaVuSans-49"/>
       <use x="63.623047" xlink:href="#DejaVuSans-46"/>
       <use x="95.410156" xlink:href="#DejaVuSans-55"/>
       <use x="159.033203" xlink:href="#DejaVuSans-53"/>
      </g>
     </g>
    </g>
    <g id="xtick_9">
     <g id="line2d_9">
      <g>
       <use style="stroke:#000000;stroke-width:0.8;" x="373.581818" xlink:href="#mbb32f51153" y="252"/>
      </g>
     </g>
     <g id="text_9">
      <!-- 2.00 -->
      <g transform="translate(362.449006 266.598437)scale(0.1 -0.1)">
       <use xlink:href="#DejaVuSans-50"/>
       <use x="63.623047" xlink:href="#DejaVuSans-46"/>
       <use x="95.410156" xlink:href="#DejaVuSans-48"/>
       <use x="159.033203" xlink:href="#DejaVuSans-48"/>
      </g>
     </g>
    </g>
    <g id="text_10">
     <!-- Time -->
     <defs>
      <path d="M -0.296875 72.90625 
L 61.375 72.90625 
L 61.375 64.59375 
L 35.5 64.59375 
L 35.5 0 
L 25.59375 0 
L 25.59375 64.59375 
L -0.296875 64.59375 
z
" id="DejaVuSans-84"/>
      <path d="M 9.421875 54.6875 
L 18.40625 54.6875 
L 18.40625 0 
L 9.421875 0 
z
M 9.421875 75.984375 
L 18.40625 75.984375 
L 18.40625 64.59375 
L 9.421875 64.59375 
z
" id="DejaVuSans-105"/>
      <path d="M 52 44.1875 
Q 55.375 50.25 60.0625 53.125 
Q 64.75 56 71.09375 56 
Q 79.640625 56 84.28125 50.015625 
Q 88.921875 44.046875 88.921875 33.015625 
L 88.921875 0 
L 79.890625 0 
L 79.890625 32.71875 
Q 79.890625 40.578125 77.09375 44.375 
Q 74.3125 48.1875 68.609375 48.1875 
Q 61.625 48.1875 57.5625 43.546875 
Q 53.515625 38.921875 53.515625 30.90625 
L 53.515625 0 
L 44.484375 0 
L 44.484375 32.71875 
Q 44.484375 40.625 41.703125 44.40625 
Q 38.921875 48.1875 33.109375 48.1875 
Q 26.21875 48.1875 22.15625 43.53125 
Q 18.109375 38.875 18.109375 30.90625 
L 18.109375 0 
L 9.078125 0 
L 9.078125 54.6875 
L 18.109375 54.6875 
L 18.109375 46.1875 
Q 21.1875 51.21875 25.484375 53.609375 
Q 29.78125 56 35.6875 56 
Q 41.65625 56 45.828125 52.96875 
Q 50 49.953125 52 44.1875 
z
" id="DejaVuSans-109"/>
      <path d="M 56.203125 29.59375 
L 56.203125 25.203125 
L 14.890625 25.203125 
Q 15.484375 15.921875 20.484375 11.0625 
Q 25.484375 6.203125 34.421875 6.203125 
Q 39.59375 6.203125 44.453125 7.46875 
Q 49.3125 8.734375 54.109375 11.28125 
L 54.109375 2.78125 
Q 49.265625 0.734375 44.1875 -0.34375 
Q 39.109375 -1.421875 33.890625 -1.421875 
Q 20.796875 -1.421875 13.15625 6.1875 
Q 5.515625 13.8125 5.515625 26.8125 
Q 5.515625 40.234375 12.765625 48.109375 
Q 20.015625 56 32.328125 56 
Q 43.359375 56 49.78125 48.890625 
Q 56.203125 41.796875 56.203125 29.59375 
z
M 47.21875 32.234375 
Q 47.125 39.59375 43.09375 43.984375 
Q 39.0625 48.390625 32.421875 48.390625 
Q 24.90625 48.390625 20.390625 44.140625 
Q 15.875 39.890625 15.1875 32.171875 
z
" id="DejaVuSans-101"/>
     </defs>
     <g transform="translate(209.0125 280.276563)scale(0.1 -0.1)">
      <use xlink:href="#DejaVuSans-84"/>
      <use x="61.037109" xlink:href="#DejaVuSans-105"/>
      <use x="88.820312" xlink:href="#DejaVuSans-109"/>
      <use x="186.232422" xlink:href="#DejaVuSans-101"/>
     </g>
    </g>
   </g>
   <g id="matplotlib.axis_2">
    <g id="ytick_1">
     <g id="line2d_10">
      <defs>
       <path d="M 0 0 
L -3.5 0 
" id="med677ec464" style="stroke:#000000;stroke-width:0.8;"/>
      </defs>
      <g>
       <use style="stroke:#000000;stroke-width:0.8;" x="54" xlink:href="#med677ec464" y="242.11676"/>
      </g>
     </g>
     <g id="text_11">
      <!-- −2.0 -->
      <defs>
       <path d="M 10.59375 35.5 
L 73.1875 35.5 
L 73.1875 27.203125 
L 10.59375 27.203125 
z
" id="DejaVuSans-8722"/>
      </defs>
      <g transform="translate(22.717187 245.915979)scale(0.1 -0.1)">
       <use xlink:href="#DejaVuSans-8722"/>
       <use x="83.789062" xlink:href="#DejaVuSans-50"/>
       <use x="147.412109" xlink:href="#DejaVuSans-46"/>
       <use x="179.199219" xlink:href="#DejaVuSans-48"/>
      </g>
     </g>
    </g>
    <g id="ytick_2">
     <g id="line2d_11">
      <g>
       <use style="stroke:#000000;stroke-width:0.8;" x="54" xlink:href="#med677ec464" y="217.40757"/>
      </g>
     </g>
     <g id="text_12">
      <!-- −1.5 -->
      <g transform="translate(22.717187 221.206789)scale(0.1 -0.1)">
       <use xlink:href="#DejaVuSans-8722"/>
       <use x="83.789062" xlink:href="#DejaVuSans-49"/>
       <use x="147.412109" xlink:href="#DejaVuSans-46"/>
       <use x="179.199219" xlink:href="#DejaVuSans-53"/>
      </g>
     </g>
    </g>
    <g id="ytick_3">
     <g id="line2d_12">
      <g>
       <use style="stroke:#000000;stroke-width:0.8;" x="54" xlink:href="#med677ec464" y="192.69838"/>
      </g>
     </g>
     <g id="text_13">
      <!-- −1.0 -->
      <g transform="translate(22.717187 196.497599)scale(0.1 -0.1)">
       <use xlink:href="#DejaVuSans-8722"/>
       <use x="83.789062" xlink:href="#DejaVuSans-49"/>
       <use x="147.412109" xlink:href="#DejaVuSans-46"/>
       <use x="179.199219" xlink:href="#DejaVuSans-48"/>
      </g>
     </g>
    </g>
    <g id="ytick_4">
     <g id="line2d_13">
      <g>
       <use style="stroke:#000000;stroke-width:0.8;" x="54" xlink:href="#med677ec464" y="167.98919"/>
      </g>
     </g>
     <g id="text_14">
      <!-- −0.5 -->
      <g transform="translate(22.717187 171.788409)scale(0.1 -0.1)">
       <use xlink:href="#DejaVuSans-8722"/>
       <use x="83.789062" xlink:href="#DejaVuSans-48"/>
       <use x="147.412109" xlink:href="#DejaVuSans-46"/>
       <use x="179.199219" xlink:href="#DejaVuSans-53"/>
      </g>
     </g>
    </g>
    <g id="ytick_5">
     <g id="line2d_14">
      <g>
       <use style="stroke:#000000;stroke-width:0.8;" x="54" xlink:href="#med677ec464" y="143.28"/>
      </g>
     </g>
     <g id="text_15">
      <!-- 0.0 -->
      <g transform="translate(31.096875 147.079219)scale(0.1 -0.1)">
       <use xlink:href="#DejaVuSans-48"/>
       <use x="63.623047" xlink:href="#DejaVuSans-46"/>
       <use x="95.410156" xlink:href="#DejaVuSans-48"/>
      </g>
     </g>
    </g>
    <g id="ytick_6">
     <g id="line2d_15">
      <g>
       <use style="stroke:#000000;stroke-width:0.8;" x="54" xlink:href="#med677ec464" y="118.57081"/>
      </g>
     </g>
     <g id="text_16">
      <!-- 0.5 -->
      <g transform="translate(31.096875 122.370029)scale(0.1 -0.1)">
       <use xlink:href="#DejaVuSans-48"/>
       <use x="63.623047" xlink:href="#DejaVuSans-46"/>
       <use x="95.410156" xlink:href="#DejaVuSans-53"/>
      </g>
     </g>
    </g>
    <g id="ytick_7">
     <g id="line2d_16">
      <g>
       <use style="stroke:#000000;stroke-width:0.8;" x="54" xlink:href="#med677ec464" y="93.86162"/>
      </g>
     </g>
     <g id="text_17">
      <!-- 1.0 -->
      <g transform="translate(31.096875 97.660839)scale(0.1 -0.1)">
       <use xlink:href="#DejaVuSans-49"/>
       <use x="63.623047" xlink:href="#DejaVuSans-46"/>
       <use x="95.410156" xlink:href="#DejaVuSans-48"/>
      </g>
     </g>
    </g>
    <g id="ytick_8">
     <g id="line2d_17">
      <g>
       <use style="stroke:#000000;stroke-width:0.8;" x="54" xlink:href="#med677ec464" y="69.15243"/>
      </g>
     </g>
     <g id="text_18">
      <!-- 1.5 -->
      <g transform="translate(31.096875 72.951649)scale(0.1 -0.1)">
       <use xlink:href="#DejaVuSans-49"/>
       <use x="63.623047" xlink:href="#DejaVuSans-46"/>
       <use x="95.410156" xlink:href="#DejaVuSans-53"/>
      </g>
     </g>
    </g>
    <g id="ytick_9">
     <g id="line2d_18">
      <g>
       <use style="stroke:#000000;stroke-width:0.8;" x="54" xlink:href="#med677ec464" y="44.44324"/>
      </g>
     </g>
     <g id="text_19">
      <!-- 2.0 -->
      <g transform="translate(31.096875 48.242458)scale(0.1 -0.1)">
       <use xlink:href="#DejaVuSans-50"/>
       <use x="63.623047" xlink:href="#DejaVuSans-46"/>
       <use x="95.410156" xlink:href="#DejaVuSans-48"/>
      </g>
     </g>
    </g>
    <g id="text_20">
     <!-- Amplitude -->
     <defs>
      <path d="M 34.1875 63.1875 
L 20.796875 26.90625 
L 47.609375 26.90625 
z
M 28.609375 72.90625 
L 39.796875 72.90625 
L 67.578125 0 
L 57.328125 0 
L 50.6875 18.703125 
L 17.828125 18.703125 
L 11.1875 0 
L 0.78125 0 
z
" id="DejaVuSans-65"/>
      <path d="M 18.109375 8.203125 
L 18.109375 -20.796875 
L 9.078125 -20.796875 
L 9.078125 54.6875 
L 18.109375 54.6875 
L 18.109375 46.390625 
Q 20.953125 51.265625 25.265625 53.625 
Q 29.59375 56 35.59375 56 
Q 45.5625 56 51.78125 48.09375 
Q 58.015625 40.1875 58.015625 27.296875 
Q 58.015625 14.40625 51.78125 6.484375 
Q 45.5625 -1.421875 35.59375 -1.421875 
Q 29.59375 -1.421875 25.265625 0.953125 
Q 20.953125 3.328125 18.109375 8.203125 
z
M 48.6875 27.296875 
Q 48.6875 37.203125 44.609375 42.84375 
Q 40.53125 48.484375 33.40625 48.484375 
Q 26.265625 48.484375 22.1875 42.84375 
Q 18.109375 37.203125 18.109375 27.296875 
Q 18.109375 17.390625 22.1875 11.75 
Q 26.265625 6.109375 33.40625 6.109375 
Q 40.53125 6.109375 44.609375 11.75 
Q 48.6875 17.390625 48.6875 27.296875 
z
" id="DejaVuSans-112"/>
      <path d="M 9.421875 75.984375 
L 18.40625 75.984375 
L 18.40625 0 
L 9.421875 0 
z
" id="DejaVuSans-108"/>
      <path d="M 18.3125 70.21875 
L 18.3125 54.6875 
L 36.8125 54.6875 
L 36.8125 47.703125 
L 18.3125 47.703125 
L 18.3125 18.015625 
Q 18.3125 11.328125 20.140625 9.421875 
Q 21.96875 7.515625 27.59375 7.515625 
L 36.8125 7.515625 
L 36.8125 0 
L 27.59375 0 
Q 17.1875 0 13.234375 3.875 
Q 9.28125 7.765625 9.28125 18.015625 
L 9.28125 47.703125 
L 2.6875 47.703125 
L 2.6875 54.6875 
L 9.28125 54.6875 
L 9.28125 70.21875 
z
" id="DejaVuSans-116"/>
      <path d="M 8.5 21.578125 
L 8.5 54.6875 
L 17.484375 54.6875 
L 17.484375 21.921875 
Q 17.484375 14.15625 20.5 10.265625 
Q 23.53125 6.390625 29.59375 6.390625 
Q 36.859375 6.390625 41.078125 11.03125 
Q 45.3125 15.671875 45.3125 23.6875 
L 45.3125 54.6875 
L 54.296875 54.6875 
L 54.296875 0 
L 45.3125 0 
L 45.3125 8.40625 
Q 42.046875 3.421875 37.71875 1 
Q 33.40625 -1.421875 27.6875 -1.421875 
Q 18.265625 -1.421875 13.375 4.4375 
Q 8.5 10.296875 8.5 21.578125 
z
M 31.109375 56 
z
" id="DejaVuSans-117"/>
      <path d="M 45.40625 46.390625 
L 45.40625 75.984375 
L 54.390625 75.984375 
L 54.390625 0 
L 45.40625 0 
L 45.40625 8.203125 
Q 42.578125 3.328125 38.25 0.953125 
Q 33.9375 -1.421875 27.875 -1.421875 
Q 17.96875 -1.421875 11.734375 6.484375 
Q 5.515625 14.40625 5.515625 27.296875 
Q 5.515625 40.1875 11.734375 48.09375 
Q 17.96875 56 27.875 56 
Q 33.9375 56 38.25 53.625 
Q 42.578125 51.265625 45.40625 46.390625 
z
M 14.796875 27.296875 
Q 14.796875 17.390625 18.875 11.75 
Q 22.953125 6.109375 30.078125 6.109375 
Q 37.203125 6.109375 41.296875 11.75 
Q 45.40625 17.390625 45.40625 27.296875 
Q 45.40625 37.203125 41.296875 42.84375 
Q 37.203125 48.484375 30.078125 48.484375 
Q 22.953125 48.484375 18.875 42.84375 
Q 14.796875 37.203125 14.796875 27.296875 
z
" id="DejaVuSans-100"/>
     </defs>
     <g transform="translate(16.6375 168.902656)rotate(-90)scale(0.1 -0.1)">
      <use xlink:href="#DejaVuSans-65"/>
      <use x="68.408203" xlink:href="#DejaVuSans-109"/>
      <use x="165.820312" xlink:href="#DejaVuSans-112"/>
      <use x="229.296875" xlink:href="#DejaVuSans-108"/>
      <use x="257.080078" xlink:href="#DejaVuSans-105"/>
      <use x="284.863281" xlink:href="#DejaVuSans-116"/>
      <use x="324.072266" xlink:href="#DejaVuSans-117"/>
      <use x="387.451172" xlink:href="#DejaVuSans-100"/>
      <use x="450.927734" xlink:href="#DejaVuSans-101"/>
     </g>
    </g>
   </g>
   <g id="line2d_19">
    <path clip-path="url(#pfd597e6c2e)" d="M 69.218182 143.28 
L 70.893019 104.953618 
L 71.654309 91.667156 
L 72.263341 83.974868 
L 72.720115 80.154795 
L 73.176888 78.093525 
L 73.481404 77.705263 
L 73.633662 77.803696 
L 73.938178 78.572724 
L 74.242694 80.078695 
L 74.699468 83.626541 
L 75.3085 90.464519 
L 76.222047 104.045477 
L 78.658175 142.441822 
L 79.267206 148.599613 
L 79.72398 151.574854 
L 80.028496 152.688931 
L 80.333012 153.071282 
L 80.48527 152.982065 
L 80.789786 152.237516 
L 81.094302 150.740003 
L 81.551076 147.113604 
L 82.160107 139.864189 
L 82.921397 127.487196 
L 83.987203 105.990953 
L 85.966556 65.545111 
L 86.727846 54.16179 
L 87.336878 47.98348 
L 87.793651 45.317122 
L 88.098167 44.532469 
L 88.250425 44.443636 
L 88.402683 44.557841 
L 88.707199 45.392851 
L 89.011715 47.024807 
L 89.468489 50.909543 
L 90.077521 58.550402 
L 90.83881 71.3804 
L 92.056874 96.527743 
L 93.731711 130.547483 
L 94.493001 142.165273 
L 95.102033 148.663604 
L 95.558807 151.674521 
L 95.863323 152.749303 
L 96.167838 153.069218 
L 96.320096 152.947566 
L 96.624612 152.150673 
L 96.929128 150.637255 
L 97.385902 147.105646 
L 97.994934 140.316798 
L 98.908482 126.809005 
L 101.344609 88.324129 
L 101.95364 82.12344 
L 102.410414 79.143074 
L 102.71493 78.047297 
L 103.019446 77.706585 
L 103.171704 77.827031 
L 103.47622 78.658229 
L 103.780736 80.279157 
L 104.23751 84.171322 
L 104.846541 91.952464 
L 105.607831 105.330644 
L 106.673637 128.953956 
L 109.109764 184.909088 
L 109.871054 197.342022 
L 110.480085 204.220378 
L 110.936859 207.38633 
L 111.241375 208.513785 
L 111.545891 208.853019 
L 111.698149 208.73045 
L 112.002665 207.914373 
L 112.307181 206.363592 
L 112.763955 202.754239 
L 113.372986 195.84816 
L 114.286534 182.202886 
L 116.570403 145.757583 
L 117.179435 139.105424 
L 117.636209 135.695507 
L 118.092983 133.825491 
L 118.397499 133.489585 
L 118.549757 133.602334 
L 118.854273 134.394092 
L 119.158788 135.938361 
L 119.615562 139.632385 
L 120.224594 146.963456 
L 120.985884 159.421473 
L 122.203947 184.259815 
L 123.878785 218.673822 
L 124.640075 230.677869 
L 125.249106 237.472693 
L 125.70588 240.647486 
L 126.010396 241.783495 
L 126.314912 242.11319 
L 126.46717 241.973621 
L 126.771686 241.088302 
L 127.076202 239.407237 
L 127.532976 235.452707 
L 128.142007 227.729656 
L 128.903297 214.821158 
L 130.121361 189.61982 
L 131.796198 155.681471 
L 132.557488 144.151269 
L 133.16652 137.73809 
L 133.623293 134.796243 
L 133.927809 133.76859 
L 134.232325 133.495775 
L 134.384583 133.640725 
L 134.689099 134.48324 
L 134.993615 136.040362 
L 135.450389 139.63238 
L 136.059421 146.48879 
L 136.972968 160.061561 
L 139.409095 198.463849 
L 140.018127 204.591097 
L 140.474901 207.506934 
L 140.779417 208.556417 
L 141.083933 208.84905 
L 141.236191 208.704129 
L 141.540707 207.823583 
L 141.845223 206.153421 
L 142.301996 202.189298 
L 142.911028 194.31964 
L 143.672318 180.850386 
L 144.738124 157.151244 
L 147.021993 104.205473 
L 147.783283 91.104358 
L 148.392314 83.590765 
L 148.849088 79.91526 
L 149.305862 78.001987 
L 149.610378 77.711732 
L 149.762636 77.858397 
L 150.067152 78.721404 
L 150.371668 80.316831 
L 150.828441 83.987368 
L 151.437473 90.960991 
L 152.351021 104.66955 
L 154.63489 141.042411 
L 155.243922 147.625452 
L 155.700696 150.974094 
L 156.15747 152.77722 
L 156.461986 153.066614 
L 156.614243 152.930316 
L 156.918759 152.091356 
L 157.223275 150.500385 
L 157.680049 146.738906 
L 158.289081 139.326556 
L 159.050371 126.788201 
L 160.268434 101.888611 
L 161.943272 67.546229 
L 162.704561 55.628766 
L 163.313593 48.920847 
L 163.770367 45.818156 
L 164.074883 44.732162 
L 164.379399 44.453157 
L 164.531657 44.618082 
L 164.836173 45.553656 
L 165.140689 47.283731 
L 165.597462 51.30782 
L 166.206494 59.112606 
L 166.967784 72.09884 
L 168.185847 97.352695 
L 169.708427 128.52307 
L 170.469717 140.652928 
L 171.078748 147.655152 
L 171.535522 151.077712 
L 171.992296 152.830564 
L 172.144554 153.037583 
L 172.296812 153.056307 
L 172.44907 152.888089 
L 172.753586 152.000051 
L 173.21036 149.343074 
L 173.667134 145.221153 
L 174.276165 137.780913 
L 175.189713 123.668986 
L 177.169066 91.719229 
L 177.930356 83.103354 
L 178.38713 79.741931 
L 178.843904 77.962829 
L 179.14842 77.718362 
L 179.300678 77.887785 
L 179.605194 78.817694 
L 179.909709 80.537057 
L 180.366483 84.573 
L 180.975515 92.530831 
L 181.736805 106.090509 
L 182.80261 129.864275 
L 185.08648 182.725609 
L 185.847769 195.733106 
L 186.456801 203.156869 
L 186.913575 206.759906 
L 187.370349 208.599159 
L 187.522607 208.817657 
L 187.674865 208.840486 
L 187.827123 208.66977 
L 188.131639 207.759955 
L 188.588412 205.039376 
L 189.045186 200.833325 
L 189.806476 191.102672 
L 190.872282 173.888495 
L 192.394861 149.306759 
L 193.156151 140.180531 
L 193.765183 135.478996 
L 194.221956 133.742943 
L 194.526472 133.500123 
L 194.67873 133.659983 
L 194.983246 134.546137 
L 195.287762 136.183754 
L 195.744536 140.012516 
L 196.353568 147.50576 
L 197.114857 160.123762 
L 198.332921 185.083173 
L 200.007758 219.351916 
L 200.769048 231.182089 
L 201.37808 237.802705 
L 201.834854 240.833109 
L 202.13937 241.869024 
L 202.291628 242.084632 
L 202.443886 242.097324 
L 202.596144 241.907051 
L 202.900659 240.921278 
L 203.357433 237.963339 
L 203.814207 233.324464 
L 204.423239 224.80547 
L 205.336787 208.123998 
L 208.381946 147.78039 
L 208.990977 140.206641 
L 209.600009 135.375529 
L 209.904525 134.065519 
L 210.209041 133.509799 
L 210.361299 133.514533 
L 210.513557 133.705985 
L 210.818073 134.639445 
L 211.274847 137.360564 
L 211.883878 143.225147 
L 212.645168 153.45934 
L 214.01549 176.156696 
L 215.233553 195.095295 
L 215.994843 203.626167 
L 216.451617 206.924829 
L 216.908391 208.634957 
L 217.060649 208.829679 
L 217.212906 208.831175 
L 217.365164 208.637226 
L 217.66968 207.657941 
L 217.974196 205.889414 
L 218.43097 201.781793 
L 219.040002 193.736136 
L 219.801292 180.08669 
L 220.867097 156.239511 
L 223.150966 103.465327 
L 223.912256 90.55207 
L 224.521288 83.218453 
L 224.978062 79.687998 
L 225.282578 78.313623 
L 225.587094 77.728825 
L 225.739351 77.730321 
L 225.891609 77.925043 
L 226.196125 78.881542 
L 226.652899 81.667481 
L 227.261931 87.646321 
L 228.023221 98.01555 
L 229.393542 120.789512 
L 230.611606 139.574568 
L 231.372896 147.959958 
L 231.829669 151.185214 
L 232.286443 152.854015 
L 232.438701 153.045467 
L 232.590959 153.050201 
L 232.743217 152.866767 
L 233.047733 151.93343 
L 233.504507 149.13008 
L 233.961281 144.704256 
L 234.570312 136.501092 
L 235.331602 123.198215 
L 236.701924 94.467562 
L 238.072245 66.871763 
L 238.833535 55.129581 
L 239.442567 48.596661 
L 239.899341 45.638722 
L 240.203856 44.652949 
L 240.356114 44.462676 
L 240.508372 44.475368 
L 240.66063 44.690976 
L 240.965146 45.726891 
L 241.42192 48.757295 
L 241.878694 53.463156 
L 242.487726 62.059044 
L 243.401273 78.8203 
L 246.446432 139.05424 
L 247.055464 146.547484 
L 247.512238 150.376246 
L 247.969012 152.551349 
L 248.273528 153.059877 
L 248.425786 153.031708 
L 248.730302 152.418228 
L 249.034817 151.081004 
L 249.491591 147.793917 
L 250.100623 141.280503 
L 250.861913 130.463245 
L 253.754814 85.726675 
L 254.363846 80.439953 
L 254.820619 78.251613 
L 255.125135 77.719514 
L 255.277393 77.742343 
L 255.429651 77.960841 
L 255.734167 78.98951 
L 256.190941 82.009003 
L 256.647715 86.754585 
L 257.256747 95.574154 
L 258.018036 110.001112 
L 259.2361 138.159467 
L 261.063195 180.469491 
L 261.976743 196.280102 
L 262.585775 203.523264 
L 263.042549 206.981023 
L 263.347064 208.306032 
L 263.65158 208.841638 
L 263.803838 208.815852 
L 264.108354 208.188657 
L 264.41287 206.818069 
L 264.869644 203.456646 
L 265.478676 196.826271 
L 266.239965 185.883277 
L 268.980608 143.007036 
L 269.58964 137.216926 
L 270.046414 134.559949 
L 270.35093 133.671911 
L 270.503188 133.503693 
L 270.655446 133.522417 
L 270.807704 133.729436 
L 271.11222 134.709939 
L 271.568994 137.582596 
L 272.025767 142.07374 
L 272.634799 150.353676 
L 273.548347 166.715935 
L 276.745764 229.639623 
L 277.354796 236.777983 
L 277.811569 240.239255 
L 278.116085 241.574619 
L 278.420601 242.106843 
L 278.572859 242.068769 
L 278.877375 241.384968 
L 279.181891 239.900911 
L 279.638665 236.226925 
L 280.247697 228.835342 
L 281.008986 216.245378 
L 282.22705 191.268863 
L 283.901887 157.016664 
L 284.663177 145.139922 
L 285.272209 138.388108 
L 285.728983 135.170748 
L 286.033499 133.954734 
L 286.338014 133.493386 
L 286.490272 133.544965 
L 286.794788 134.204431 
L 287.099304 135.585906 
L 287.556078 138.934548 
L 288.16511 145.517589 
L 288.9264 156.395668 
L 291.819301 201.035709 
L 292.428332 206.243169 
L 292.885106 208.36387 
L 293.189622 208.848268 
L 293.34188 208.80108 
L 293.646396 208.117802 
L 293.950912 206.64474 
L 294.407686 202.969235 
L 295.016717 195.455642 
L 295.778007 182.354527 
L 296.843813 158.965901 
L 299.27994 102.733326 
L 300.04123 90.010391 
L 300.650261 82.857988 
L 301.107035 79.473031 
L 301.411551 78.197401 
L 301.716067 77.71095 
L 301.868325 77.760989 
L 302.172841 78.435573 
L 302.477357 79.851445 
L 302.934131 83.275322 
L 303.543162 89.975444 
L 304.45671 103.424691 
L 306.892837 141.983194 
L 307.501869 148.284714 
L 307.958643 151.385491 
L 308.263159 152.589194 
L 308.567675 153.064225 
L 308.719933 153.022023 
L 309.024449 152.371895 
L 309.328964 150.968044 
L 309.785738 147.477381 
L 310.39477 140.392396 
L 311.15606 128.179487 
L 312.221865 106.806804 
L 314.201219 66.204671 
L 314.962509 54.64055 
L 315.57154 48.28418 
L 316.028314 45.471698 
L 316.33283 44.586379 
L 316.485088 44.44681 
L 316.637346 44.510265 
L 316.941862 45.244514 
L 317.246378 46.777963 
L 317.703152 50.522422 
L 318.312183 57.997542 
L 319.073473 70.668269 
L 320.291537 95.703197 
L 321.966374 129.879868 
L 322.727664 141.670934 
L 323.336696 148.338588 
L 323.793469 151.487265 
L 324.097985 152.65623 
L 324.402501 153.070415 
L 324.554759 152.995451 
L 324.859275 152.290085 
L 325.163791 150.864493 
L 325.620565 147.454576 
L 326.229597 140.802417 
L 326.990886 129.864325 
L 329.883787 85.324152 
L 330.492819 80.196408 
L 330.949593 78.143578 
L 331.254109 77.706981 
L 331.406367 77.778558 
L 331.710883 78.511119 
L 332.015399 80.033495 
L 332.472172 83.781346 
L 333.081204 91.38445 
L 333.842494 104.578555 
L 334.9083 128.046603 
L 337.344427 184.189575 
L 338.105716 196.816439 
L 338.714748 203.877784 
L 339.171522 207.189836 
L 339.476038 208.41608 
L 339.780554 208.853415 
L 339.932812 208.779159 
L 340.237328 208.057297 
L 340.541844 206.596297 
L 340.998617 203.110277 
L 341.607649 196.340953 
L 342.521197 182.825338 
L 344.957324 144.346497 
L 345.566356 138.116598 
L 346.02313 135.078458 
L 346.327646 133.919509 
L 346.632162 133.490782 
L 346.784419 133.556483 
L 347.088935 134.253821 
L 347.393451 135.704527 
L 347.850225 139.263138 
L 348.459257 146.430522 
L 349.220547 158.725811 
L 350.286352 180.160885 
L 352.265706 220.68606 
L 353.026995 232.160121 
L 353.636027 238.427647 
L 354.092801 241.167149 
L 354.397317 242.002159 
L 354.549575 242.116364 
L 354.701833 242.027531 
L 355.006349 241.242878 
L 355.310865 239.660129 
L 355.767638 235.845418 
L 356.37667 228.287204 
L 357.13796 215.536465 
L 358.356023 190.444593 
L 360.030861 156.34541 
L 360.792151 144.640664 
L 361.401182 138.057506 
L 361.857956 134.977644 
L 362.162472 133.855757 
L 362.466988 133.488718 
L 362.619246 133.58704 
L 362.923762 134.338216 
L 363.228278 135.807791 
L 363.685052 139.278697 
L 364.294083 145.99946 
L 365.207631 159.441278 
L 367.643758 198.005875 
L 368.25279 204.279491 
L 368.709564 207.324101 
L 369.01408 208.466036 
L 369.318596 208.854737 
L 369.470854 208.75874 
L 369.77537 207.97687 
L 370.079885 206.405205 
L 370.536659 202.585132 
L 371.145691 194.892844 
L 371.906981 181.606382 
L 372.972786 158.060103 
L 373.581818 143.28 
L 373.581818 143.28 
" style="fill:none;stroke:#1f77b4;stroke-linecap:square;stroke-width:1.5;"/>
   </g>
   <g id="line2d_20">
    <path clip-path="url(#pfd597e6c2e)" d="M 69.218182 143.28 
L 73.78592 125.079216 
L 76.222047 116.266109 
L 78.201401 109.892631 
L 79.876238 105.188626 
L 81.398818 101.54137 
L 82.769139 98.820771 
L 83.987203 96.878916 
L 85.053008 95.563986 
L 86.118814 94.618402 
L 87.032362 94.107498 
L 87.945909 93.876281 
L 88.707199 93.898248 
L 89.468489 94.115296 
L 90.382036 94.632002 
L 91.295584 95.425411 
L 92.36139 96.694672 
L 93.427195 98.324528 
L 94.645259 100.612456 
L 96.015581 103.700573 
L 97.53816 107.7236 
L 99.212997 112.794523 
L 101.192351 119.529704 
L 103.628478 128.667741 
L 107.434927 143.978962 
L 111.850407 161.552967 
L 114.286534 170.358892 
L 116.265887 176.724587 
L 117.940725 181.420806 
L 119.463304 185.06016 
L 120.833626 187.773084 
L 122.051689 189.707748 
L 123.117495 191.016164 
L 124.031043 191.843877 
L 124.94459 192.395363 
L 125.858138 192.667488 
L 126.619428 192.679691 
L 127.380718 192.496742 
L 128.294265 192.020672 
L 129.207813 191.267372 
L 130.121361 190.241124 
L 131.187166 188.706734 
L 132.40523 186.5234 
L 133.775551 183.545942 
L 135.298131 179.635515 
L 136.972968 174.673819 
L 138.952322 168.045219 
L 141.236191 159.588765 
L 144.585866 146.229518 
L 150.067152 124.359436 
L 152.503279 115.619128 
L 154.482632 109.324182 
L 156.15747 104.698558 
L 157.680049 101.130721 
L 159.050371 98.48718 
L 160.268434 96.617435 
L 161.33424 95.367794 
L 162.247788 94.591563 
L 163.161335 94.092265 
L 164.074883 93.872742 
L 164.836173 93.904471 
L 165.597462 94.131258 
L 166.51101 94.659562 
L 167.424558 95.464414 
L 168.490363 96.746739 
L 169.556169 98.389256 
L 170.774233 100.691035 
L 172.144554 103.793779 
L 173.667134 107.831652 
L 175.341971 112.916926 
L 177.321324 119.666036 
L 179.757451 128.816198 
L 183.5639 144.134273 
L 187.979381 161.697198 
L 190.415508 170.488693 
L 192.394861 176.838776 
L 194.069698 181.519388 
L 195.592278 185.142912 
L 196.962599 187.840463 
L 198.180663 189.760734 
L 199.246469 191.056111 
L 200.160016 191.872397 
L 201.073564 192.412296 
L 201.987112 192.672735 
L 202.748401 192.675176 
L 203.509691 192.482481 
L 204.423239 191.994795 
L 205.336787 191.230026 
L 206.402592 189.99348 
L 207.468398 188.395348 
L 208.686461 186.142147 
L 210.056783 183.090728 
L 211.579362 179.104989 
L 213.2542 174.070165 
L 215.233553 167.370098 
L 217.66968 158.262765 
L 221.323871 143.590658 
L 226.043867 124.790754 
L 228.479995 116.006507 
L 230.459348 109.664254 
L 232.134185 104.991463 
L 233.656765 101.375868 
L 235.027086 98.686012 
L 236.24515 96.772945 
L 237.310955 95.484092 
L 238.224503 94.673522 
L 239.138051 94.13942 
L 240.051599 93.884824 
L 240.812888 93.887265 
L 241.574178 94.084831 
L 242.487726 94.578323 
L 243.401273 95.348825 
L 244.467079 96.59192 
L 245.532885 98.196404 
L 246.750948 100.456563 
L 248.12127 103.515336 
L 249.643849 107.508552 
L 251.318687 112.550621 
L 253.29804 119.257744 
L 255.734167 128.371263 
L 259.388358 143.047006 
L 264.108354 161.841247 
L 266.544481 170.618226 
L 268.523835 176.952633 
L 270.198672 181.617592 
L 271.721252 185.225249 
L 273.091573 187.907403 
L 274.309637 189.813261 
L 275.375442 191.095586 
L 276.28899 191.900438 
L 277.202538 192.428742 
L 278.116085 192.677495 
L 278.877375 192.670172 
L 279.638665 192.467735 
L 280.552212 191.968437 
L 281.46576 191.192206 
L 282.531566 189.942565 
L 283.597371 188.331732 
L 284.815435 186.064623 
L 286.185757 182.998502 
L 287.708336 178.997818 
L 289.383173 173.948517 
L 291.362527 167.234355 
L 293.798654 158.114672 
L 297.452845 143.43533 
L 302.020583 125.223717 
L 304.45671 116.396311 
L 306.436063 110.007315 
L 308.110901 105.287772 
L 309.63348 101.62474 
L 311.003802 98.888809 
L 312.221865 96.93259 
L 313.287671 95.60464 
L 314.353477 94.645722 
L 315.267024 94.123216 
L 316.180572 93.880309 
L 316.941862 93.892512 
L 317.703152 94.099821 
L 318.616699 94.604922 
L 319.530247 95.386882 
L 320.596053 96.643066 
L 321.661858 98.260244 
L 322.879922 100.534298 
L 324.250243 103.607759 
L 325.772823 107.6159 
L 327.44766 112.672421 
L 329.427014 119.393606 
L 331.863141 128.519429 
L 335.517331 143.202335 
L 340.08507 161.408556 
L 342.521197 170.228823 
L 344.50055 176.610068 
L 346.175388 181.321848 
L 347.697967 184.976996 
L 349.068289 187.705265 
L 350.286352 189.654304 
L 351.352158 190.975746 
L 352.417964 191.927998 
L 353.331511 192.444704 
L 354.245059 192.681766 
L 355.006349 192.664681 
L 355.767638 192.452502 
L 356.681186 191.941598 
L 357.594734 191.153913 
L 358.660539 189.891189 
L 359.726345 188.26767 
L 360.944409 185.986676 
L 362.31473 182.905883 
L 363.83731 178.890294 
L 365.512147 173.826566 
L 367.4915 167.098375 
L 369.927627 157.966433 
L 373.581818 143.28 
L 373.581818 143.28 
" style="fill:none;stroke:#ff7f0e;stroke-linecap:square;stroke-width:1.5;"/>
   </g>
   <g id="line2d_21">
    <path clip-path="url(#pfd597e6c2e)" d="M 69.218182 143.28 
L 70.740761 114.22004 
L 71.502051 103.286 
L 72.111083 97.321096 
L 72.567857 94.730564 
L 72.872373 93.956809 
L 73.02463 93.861635 
L 73.176888 93.961688 
L 73.481404 94.745124 
L 73.78592 96.294748 
L 74.242694 99.999061 
L 74.851726 107.294918 
L 75.613016 119.529704 
L 76.983337 146.462064 
L 78.353659 172.402742 
L 79.114948 183.319571 
L 79.72398 189.267395 
L 80.180754 191.843877 
L 80.48527 192.607948 
L 80.637528 192.698243 
L 80.789786 192.593311 
L 81.094302 191.800196 
L 81.398818 190.241124 
L 81.855591 186.5234 
L 82.464623 179.211806 
L 83.225913 166.962159 
L 84.596234 140.020436 
L 85.966556 114.094548 
L 86.727846 103.194956 
L 87.336878 97.264229 
L 87.793651 94.701803 
L 88.098167 93.947416 
L 88.250425 93.862001 
L 88.402683 93.971812 
L 88.707199 94.774604 
L 89.011715 96.343119 
L 89.468489 100.074246 
L 90.077521 107.401558 
L 90.83881 119.666036 
L 92.209132 146.617056 
L 93.579453 172.52809 
L 94.340743 183.410417 
L 94.949775 189.324035 
L 95.406549 191.872397 
L 95.711065 192.617097 
L 95.863323 192.697633 
L 96.015581 192.582944 
L 96.320096 191.770477 
L 96.624612 190.192521 
L 97.081386 186.448001 
L 97.690418 179.104989 
L 98.451708 166.82571 
L 99.822029 139.865461 
L 101.192351 113.969344 
L 101.95364 103.104308 
L 102.562672 97.207816 
L 103.019446 94.673522 
L 103.323962 93.938511 
L 103.47622 93.862856 
L 103.628478 93.982422 
L 103.932994 94.804563 
L 104.23751 96.391954 
L 104.694284 100.149859 
L 105.303315 107.508552 
L 106.064605 119.802602 
L 107.434927 146.772014 
L 108.805248 172.65315 
L 109.566538 183.500867 
L 110.17557 189.38022 
L 110.632343 191.900438 
L 110.936859 192.625759 
L 111.089117 192.696534 
L 111.241375 192.57209 
L 111.545891 191.740278 
L 111.850407 190.143455 
L 112.307181 186.372175 
L 112.916213 178.997818 
L 113.677502 166.689028 
L 115.047824 139.710519 
L 116.418145 113.84443 
L 117.179435 103.014058 
L 117.788467 97.151858 
L 118.245241 94.645722 
L 118.549757 93.930093 
L 118.702015 93.864198 
L 118.854273 93.99352 
L 119.158788 94.835001 
L 119.463304 96.441252 
L 119.920078 100.225898 
L 120.52911 107.6159 
L 121.2904 119.9394 
L 122.660721 146.926939 
L 124.031043 172.777919 
L 124.792333 183.590919 
L 125.401364 189.43595 
L 125.858138 191.927998 
L 126.162654 192.633933 
L 126.314912 192.694947 
L 126.46717 192.560749 
L 126.771686 191.709601 
L 127.076202 190.093926 
L 127.532976 186.295924 
L 128.142007 178.890294 
L 128.903297 166.552115 
L 130.273619 139.555613 
L 131.64394 113.719806 
L 132.40523 102.924205 
L 133.014262 97.096356 
L 133.471036 94.618402 
L 133.775551 93.922163 
L 133.927809 93.866029 
L 134.080067 94.005105 
L 134.384583 94.865917 
L 134.689099 96.491012 
L 135.145873 100.302362 
L 135.754905 107.7236 
L 136.516194 120.076428 
L 137.886516 147.081827 
L 139.256838 172.902396 
L 140.018127 183.680572 
L 140.627159 189.491224 
L 141.083933 191.955078 
L 141.388449 192.641619 
L 141.540707 192.692872 
L 141.692965 192.54892 
L 141.997481 191.678445 
L 142.301996 190.043934 
L 142.75877 186.219247 
L 143.367802 178.782418 
L 144.129092 166.414972 
L 145.499413 139.400743 
L 146.869735 113.595475 
L 147.631025 102.83475 
L 148.240056 97.04131 
L 148.69683 94.591563 
L 149.001346 93.91472 
L 149.153604 93.868348 
L 149.305862 94.017176 
L 149.610378 94.897312 
L 149.914894 96.541235 
L 150.371668 100.37925 
L 150.980699 107.831652 
L 151.741989 120.213686 
L 153.112311 147.236678 
L 154.482632 173.026581 
L 155.243922 183.769827 
L 155.852954 189.546041 
L 156.309728 191.981677 
L 156.614243 192.648818 
L 156.766501 192.690309 
L 156.918759 192.536606 
L 157.223275 191.646811 
L 157.527791 189.99348 
L 157.984565 186.142147 
L 158.593597 178.674191 
L 159.354887 166.2776 
L 160.725208 139.245912 
L 162.09553 113.471436 
L 162.856819 102.745695 
L 163.465851 96.986722 
L 163.922625 94.565205 
L 164.227141 93.907765 
L 164.379399 93.871155 
L 164.531657 94.029734 
L 164.836173 94.929185 
L 165.140689 96.59192 
L 165.597462 100.456563 
L 166.206494 107.940053 
L 166.967784 120.351171 
L 168.338105 147.391489 
L 169.708427 173.150472 
L 170.469717 183.858682 
L 171.078748 189.600401 
L 171.535522 192.007794 
L 171.840038 192.655529 
L 171.992296 192.687258 
L 172.144554 192.523804 
L 172.44907 191.614699 
L 172.753586 189.942565 
L 173.21036 186.064623 
L 173.819392 178.565615 
L 174.580681 166.140001 
L 175.951003 139.09112 
L 177.321324 113.347693 
L 178.082614 102.657041 
L 178.691646 96.93259 
L 179.14842 94.539328 
L 179.452936 93.901298 
L 179.605194 93.874451 
L 179.757451 94.042779 
L 180.061967 94.961536 
L 180.366483 96.643066 
L 180.823257 100.534298 
L 181.432289 108.048804 
L 182.193579 120.488883 
L 183.5639 147.54626 
L 184.934222 173.274068 
L 185.695511 183.947136 
L 186.304543 189.654304 
L 186.761317 192.03343 
L 187.065833 192.661752 
L 187.218091 192.683719 
L 187.370349 192.510516 
L 187.674865 191.58211 
L 187.979381 189.891189 
L 188.436154 185.986676 
L 189.045186 178.45669 
L 189.806476 166.002176 
L 191.176797 138.93637 
L 192.547119 113.224245 
L 193.308409 102.568788 
L 193.917441 96.878916 
L 194.374214 94.513932 
L 194.67873 93.895319 
L 194.830988 93.878234 
L 194.983246 94.05631 
L 195.287762 94.994364 
L 195.744536 97.822744 
L 196.20131 102.263076 
L 196.810342 110.411289 
L 197.723889 126.313063 
L 200.61679 180.208718 
L 201.225822 187.218281 
L 201.682596 190.679646 
L 202.13937 192.460179 
L 202.291628 192.667488 
L 202.443886 192.679691 
L 202.596144 192.496742 
L 202.900659 191.549043 
L 203.357433 188.706734 
L 203.814207 184.253554 
L 204.423239 176.090674 
L 205.336787 160.173972 
L 208.07743 108.432166 
L 208.838719 99.306227 
L 209.295493 95.858442 
L 209.752267 94.092265 
L 209.904525 93.889828 
L 210.056783 93.882505 
L 210.209041 94.070328 
L 210.513557 95.027669 
L 210.970331 97.883901 
L 211.427104 102.349917 
L 212.036136 110.527443 
L 212.949684 126.459035 
L 215.690327 178.182859 
L 216.451617 187.289158 
L 216.908391 190.723354 
L 217.365164 192.475169 
L 217.517422 192.672735 
L 217.66968 192.675176 
L 217.821938 192.482481 
L 218.126454 191.5155 
L 218.583228 188.645352 
L 219.040002 184.16651 
L 219.649034 175.974358 
L 220.562581 160.027917 
L 223.303224 108.322202 
L 224.064514 99.235567 
L 224.521288 95.814968 
L 224.825804 94.464587 
L 225.13032 93.884824 
L 225.282578 93.887265 
L 225.434836 94.084831 
L 225.739351 95.061451 
L 226.196125 97.945507 
L 226.652899 102.437163 
L 227.261931 110.643921 
L 228.175479 126.605172 
L 230.916122 178.292651 
L 231.677411 187.3596 
L 232.134185 190.766594 
L 232.438701 192.107448 
L 232.743217 192.677495 
L 232.895475 192.670172 
L 233.047733 192.467735 
L 233.352249 191.48148 
L 233.809023 188.583522 
L 234.265797 184.079063 
L 234.874828 175.857719 
L 235.788376 159.881697 
L 238.529019 108.212583 
L 239.290309 99.165342 
L 239.747083 95.771963 
L 240.051599 94.440638 
L 240.356114 93.880309 
L 240.508372 93.892512 
L 240.66063 94.099821 
L 240.965146 95.095709 
L 241.42192 98.007561 
L 241.878694 102.524813 
L 242.487726 110.760721 
L 243.401273 126.751475 
L 246.141916 178.402097 
L 246.903206 187.429607 
L 247.35998 190.809364 
L 247.664496 192.131156 
L 247.969012 192.681766 
L 248.12127 192.664681 
L 248.273528 192.452502 
L 248.578044 191.446983 
L 249.034817 188.521244 
L 249.491591 183.991212 
L 250.100623 175.740758 
L 251.014171 159.735312 
L 253.754814 108.10331 
L 254.363846 100.573324 
L 254.972877 95.729427 
L 255.277393 94.417171 
L 255.581909 93.876281 
L 255.734167 93.898248 
L 255.886425 94.115296 
L 256.190941 95.130443 
L 256.647715 98.070062 
L 257.104489 102.612864 
L 257.71352 110.877842 
L 258.627068 126.897941 
L 261.367711 178.511196 
L 261.976743 186.025702 
L 262.585775 190.851665 
L 262.890291 192.154381 
L 263.194806 192.685549 
L 263.347064 192.658702 
L 263.65158 192.020672 
L 263.956096 190.613205 
L 264.41287 187.111151 
L 265.021902 180.053477 
L 265.783192 168.045219 
L 267.001255 144.367223 
L 268.523835 115.106454 
L 269.285124 103.934319 
L 269.894156 97.731849 
L 270.35093 94.945301 
L 270.655446 94.036196 
L 270.807704 93.872742 
L 270.959962 93.904471 
L 271.264478 94.552206 
L 271.568994 95.969175 
L 272.025767 99.484775 
L 272.634799 106.558451 
L 273.396089 118.582021 
L 274.614153 142.270425 
L 276.136732 171.517318 
L 276.898022 182.672625 
L 277.507054 188.858224 
L 277.963827 191.630815 
L 278.268343 192.530266 
L 278.420601 192.688845 
L 278.572859 192.652235 
L 278.877375 191.994795 
L 279.181891 190.568327 
L 279.638665 187.039191 
L 280.247697 179.949529 
L 281.008986 167.910679 
L 282.22705 144.211925 
L 283.749629 114.978979 
L 284.510919 103.840528 
L 285.119951 97.671816 
L 285.576725 94.913189 
L 285.881241 94.023394 
L 286.033499 93.869691 
L 286.185757 93.911182 
L 286.490272 94.578323 
L 286.794788 96.014287 
L 287.251562 99.556952 
L 287.860594 106.662581 
L 288.621884 118.716683 
L 289.839947 142.425727 
L 291.362527 171.644654 
L 292.123816 182.766221 
L 292.732848 188.918032 
L 293.189622 191.662688 
L 293.494138 192.542824 
L 293.646396 192.691652 
L 293.798654 192.64528 
L 294.10317 191.968437 
L 294.407686 190.522982 
L 294.86446 186.966797 
L 295.473491 179.845219 
L 296.234781 167.775895 
L 297.452845 144.056618 
L 298.975424 114.851783 
L 299.736714 103.747127 
L 300.345746 97.612233 
L 300.802519 94.881555 
L 301.107035 94.01108 
L 301.259293 93.867128 
L 301.411551 93.918381 
L 301.716067 94.604922 
L 302.020583 96.059866 
L 302.477357 99.629561 
L 303.086389 106.767072 
L 303.847678 118.851587 
L 305.065742 142.581038 
L 306.588321 171.77171 
L 307.349611 182.859427 
L 307.958643 188.97739 
L 308.415417 191.694083 
L 308.719933 192.554895 
L 308.872191 192.693971 
L 309.024449 192.637837 
L 309.328964 191.941598 
L 309.63348 190.47717 
L 310.090254 186.893973 
L 310.699286 179.740547 
L 311.460576 167.64087 
L 312.678639 143.901304 
L 314.201219 114.724867 
L 314.962509 103.654117 
L 315.57154 97.553101 
L 316.028314 94.850399 
L 316.33283 93.999251 
L 316.485088 93.865053 
L 316.637346 93.926067 
L 316.941862 94.632002 
L 317.246378 96.105911 
L 317.703152 99.702601 
L 318.312183 106.871924 
L 319.073473 118.986733 
L 320.291537 142.736356 
L 321.814116 171.898485 
L 322.575406 182.952241 
L 323.184438 189.036296 
L 323.641212 191.724999 
L 323.945727 192.56648 
L 324.097985 192.695802 
L 324.250243 192.629907 
L 324.554759 191.914278 
L 324.859275 190.430891 
L 325.316049 186.820717 
L 325.925081 179.635515 
L 326.68637 167.505604 
L 327.904434 143.745983 
L 329.427014 114.598234 
L 330.188303 103.561498 
L 330.797335 97.49442 
L 331.254109 94.819722 
L 331.558625 93.98791 
L 331.710883 93.863466 
L 331.863141 93.934241 
L 332.167657 94.659562 
L 332.472172 96.152423 
L 332.928946 99.776072 
L 333.537978 106.977135 
L 334.299268 119.122119 
L 335.517331 142.891679 
L 337.039911 172.024976 
L 337.801201 183.044664 
L 338.410232 189.09475 
L 338.867006 191.755437 
L 339.171522 192.577578 
L 339.32378 192.697144 
L 339.476038 192.621489 
L 339.780554 191.886478 
L 340.08507 190.384147 
L 340.541844 186.747031 
L 341.150875 179.530124 
L 341.912165 167.370098 
L 343.130229 143.590658 
L 344.652808 114.471884 
L 345.414098 103.469272 
L 346.02313 97.436192 
L 346.479904 94.789523 
L 346.784419 93.977056 
L 346.936677 93.862367 
L 347.088935 93.942903 
L 347.393451 94.687603 
L 347.697967 96.199399 
L 348.154741 99.849973 
L 348.763773 107.082706 
L 349.525063 119.257744 
L 350.743126 143.047006 
L 352.265706 172.151184 
L 353.026995 183.136694 
L 353.636027 189.152752 
L 354.092801 191.785396 
L 354.397317 192.588188 
L 354.549575 192.697999 
L 354.701833 192.612584 
L 355.006349 191.858197 
L 355.310865 190.336938 
L 355.767638 186.672916 
L 356.37667 179.424375 
L 357.13796 167.234355 
L 358.356023 143.43533 
L 359.878603 114.345819 
L 360.639893 103.377439 
L 361.248924 97.378417 
L 361.705698 94.759804 
L 362.010214 93.966689 
L 362.162472 93.861757 
L 362.31473 93.952052 
L 362.619246 94.716123 
L 362.923762 96.246842 
L 363.380536 99.924303 
L 363.989568 107.188634 
L 364.750857 119.393606 
L 365.968921 143.202335 
L 367.4915 172.277106 
L 368.25279 183.22833 
L 368.861822 189.2103 
L 369.318596 191.814876 
L 369.623112 192.598312 
L 369.77537 192.698365 
L 369.927627 192.603191 
L 370.232143 191.829436 
L 370.536659 190.289263 
L 370.993433 186.598372 
L 371.602465 179.318269 
L 372.363755 167.098375 
L 373.581818 143.28 
L 373.581818 143.28 
" style="fill:none;stroke:#2ca02c;stroke-linecap:square;stroke-width:1.5;"/>
   </g>
   <g id="patch_3">
    <path d="M 54 252 
L 54 34.56 
" style="fill:none;stroke:#000000;stroke-linecap:square;stroke-linejoin:miter;stroke-width:0.8;"/>
   </g>
   <g id="patch_4">
    <path d="M 388.8 252 
L 388.8 34.56 
" style="fill:none;stroke:#000000;stroke-linecap:square;stroke-linejoin:miter;stroke-width:0.8;"/>
   </g>
   <g id="patch_5">
    <path d="M 54 252 
L 388.8 252 
" style="fill:none;stroke:#000000;stroke-linecap:square;stroke-linejoin:miter;stroke-width:0.8;"/>
   </g>
   <g id="patch_6">
    <path d="M 54 34.56 
L 388.8 34.56 
" style="fill:none;stroke:#000000;stroke-linecap:square;stroke-linejoin:miter;stroke-width:0.8;"/>
   </g>
   <g id="legend_1">
    <g id="patch_7">
     <path d="M 308.33125 86.594375 
L 381.8 86.594375 
Q 383.8 86.594375 383.8 84.594375 
L 383.8 41.56 
Q 383.8 39.56 381.8 39.56 
L 308.33125 39.56 
Q 306.33125 39.56 306.33125 41.56 
L 306.33125 84.594375 
Q 306.33125 86.594375 308.33125 86.594375 
z
" style="fill:#ffffff;opacity:0.8;stroke:#cccccc;stroke-linejoin:miter;"/>
    </g>
    <g id="line2d_22">
     <path d="M 310.33125 47.658438 
L 330.33125 47.658438 
" style="fill:none;stroke:#1f77b4;stroke-linecap:square;stroke-width:1.5;"/>
    </g>
    <g id="line2d_23"/>
    <g id="text_21">
     <!-- 2 Hz -->
     <defs>
      <path id="DejaVuSans-32"/>
      <path d="M 9.8125 72.90625 
L 19.671875 72.90625 
L 19.671875 43.015625 
L 55.515625 43.015625 
L 55.515625 72.90625 
L 65.375 72.90625 
L 65.375 0 
L 55.515625 0 
L 55.515625 34.71875 
L 19.671875 34.71875 
L 19.671875 0 
L 9.8125 0 
z
" id="DejaVuSans-72"/>
      <path d="M 5.515625 54.6875 
L 48.1875 54.6875 
L 48.1875 46.484375 
L 14.40625 7.171875 
L 48.1875 7.171875 
L 48.1875 0 
L 4.296875 0 
L 4.296875 8.203125 
L 38.09375 47.515625 
L 5.515625 47.515625 
z
" id="DejaVuSans-122"/>
     </defs>
     <g transform="translate(338.33125 51.158438)scale(0.1 -0.1)">
      <use xlink:href="#DejaVuSans-50"/>
      <use x="63.623047" xlink:href="#DejaVuSans-32"/>
      <use x="95.410156" xlink:href="#DejaVuSans-72"/>
      <use x="170.605469" xlink:href="#DejaVuSans-122"/>
     </g>
    </g>
    <g id="line2d_24">
     <path d="M 310.33125 62.336563 
L 330.33125 62.336563 
" style="fill:none;stroke:#ff7f0e;stroke-linecap:square;stroke-width:1.5;"/>
    </g>
    <g id="line2d_25"/>
    <g id="text_22">
     <!-- 10 Hz -->
     <g transform="translate(338.33125 65.836563)scale(0.1 -0.1)">
      <use xlink:href="#DejaVuSans-49"/>
      <use x="63.623047" xlink:href="#DejaVuSans-48"/>
      <use x="127.246094" xlink:href="#DejaVuSans-32"/>
      <use x="159.033203" xlink:href="#DejaVuSans-72"/>
      <use x="234.228516" xlink:href="#DejaVuSans-122"/>
     </g>
    </g>
    <g id="line2d_26">
     <path d="M 310.33125 77.014688 
L 330.33125 77.014688 
" style="fill:none;stroke:#2ca02c;stroke-linecap:square;stroke-width:1.5;"/>
    </g>
    <g id="line2d_27"/>
    <g id="text_23">
     <!-- Addition -->
     <defs>
      <path d="M 30.609375 48.390625 
Q 23.390625 48.390625 19.1875 42.75 
Q 14.984375 37.109375 14.984375 27.296875 
Q 14.984375 17.484375 19.15625 11.84375 
Q 23.34375 6.203125 30.609375 6.203125 
Q 37.796875 6.203125 41.984375 11.859375 
Q 46.1875 17.53125 46.1875 27.296875 
Q 46.1875 37.015625 41.984375 42.703125 
Q 37.796875 48.390625 30.609375 48.390625 
z
M 30.609375 56 
Q 42.328125 56 49.015625 48.375 
Q 55.71875 40.765625 55.71875 27.296875 
Q 55.71875 13.875 49.015625 6.21875 
Q 42.328125 -1.421875 30.609375 -1.421875 
Q 18.84375 -1.421875 12.171875 6.21875 
Q 5.515625 13.875 5.515625 27.296875 
Q 5.515625 40.765625 12.171875 48.375 
Q 18.84375 56 30.609375 56 
z
" id="DejaVuSans-111"/>
      <path d="M 54.890625 33.015625 
L 54.890625 0 
L 45.90625 0 
L 45.90625 32.71875 
Q 45.90625 40.484375 42.875 44.328125 
Q 39.84375 48.1875 33.796875 48.1875 
Q 26.515625 48.1875 22.3125 43.546875 
Q 18.109375 38.921875 18.109375 30.90625 
L 18.109375 0 
L 9.078125 0 
L 9.078125 54.6875 
L 18.109375 54.6875 
L 18.109375 46.1875 
Q 21.34375 51.125 25.703125 53.5625 
Q 30.078125 56 35.796875 56 
Q 45.21875 56 50.046875 50.171875 
Q 54.890625 44.34375 54.890625 33.015625 
z
" id="DejaVuSans-110"/>
     </defs>
     <g transform="translate(338.33125 80.514688)scale(0.1 -0.1)">
      <use xlink:href="#DejaVuSans-65"/>
      <use x="68.392578" xlink:href="#DejaVuSans-100"/>
      <use x="131.869141" xlink:href="#DejaVuSans-100"/>
      <use x="195.345703" xlink:href="#DejaVuSans-105"/>
      <use x="223.128906" xlink:href="#DejaVuSans-116"/>
      <use x="262.337891" xlink:href="#DejaVuSans-105"/>
      <use x="290.121094" xlink:href="#DejaVuSans-111"/>
      <use x="351.302734" xlink:href="#DejaVuSans-110"/>
     </g>
    </g>
   </g>
  </g>
 </g>
 <defs>
  <clipPath id="pfd597e6c2e">
   <rect height="217.44" width="334.8" x="54" y="34.56"/>
  </clipPath>
 </defs>
</svg>
